<?xml version="1.0" standalone="no"?>
<!DOCTYPE svg PUBLIC "-//W3C//DTD SVG 20010904//EN"
 "http://www.w3.org/TR/2001/REC-SVG-20010904/DTD/svg10.dtd">
<svg version="1.0" xmlns="http://www.w3.org/2000/svg"
 width="960.000000pt" height="960.000000pt" viewBox="0 0 960.000000 960.000000"
 preserveAspectRatio="xMidYMid meet">
<metadata>
Created by potrace 1.11, written by Peter Selinger 2001-2013
</metadata>
<g transform="translate(0.000000,960.000000) scale(0.100000,-0.100000)"
fill="#000000" stroke="none">
<path d="M4914 9442 c-71 -40 -136 -86 -159 -113 -30 -36 -46 -69 -40 -79 3
-6 -2 -9 -12 -8 -37 3 -48 -3 -65 -32 -13 -23 -24 -30 -48 -30 -16 0 -30 -4
-30 -10 0 -5 -12 -10 -26 -10 -14 0 -23 -4 -19 -10 11 -17 -5 -32 -21 -19 -11
9 -14 8 -14 -2 0 -16 -50 -69 -65 -69 -6 0 -19 -13 -28 -30 -11 -17 -23 -27
-32 -24 -9 4 -24 -17 -48 -70 -19 -41 -51 -96 -71 -122 -35 -46 -36 -49 -36
-140 0 -69 -4 -96 -15 -108 -9 -8 -15 -33 -15 -56 0 -34 7 -49 38 -82 20 -22
56 -51 80 -65 40 -24 54 -43 31 -43 -16 0 -102 51 -117 69 -12 14 -13 14 -10
-3 1 -10 34 -37 73 -61 67 -41 70 -44 70 -81 -1 -22 -4 -55 -9 -74 l-8 -35 24
23 25 23 17 -46 c21 -55 33 -64 45 -33 7 17 10 19 10 6 1 -10 7 -18 15 -18 36
0 77 -36 91 -80 l14 -45 0 58 c1 31 6 57 11 57 6 0 10 -4 10 -8 0 -5 7 -17 16
-28 14 -18 15 -17 11 21 -4 43 -3 46 71 119 23 24 42 48 42 54 0 19 30 14 37
-5 5 -15 45 -69 84 -117 4 -5 28 -10 54 -11 35 -1 45 2 40 12 -3 7 -8 20 -11
28 -5 13 1 15 32 12 22 -3 31 -3 22 0 -9 2 -22 11 -29 19 -10 13 -10 17 1 24
11 7 9 12 -10 28 -18 14 -22 24 -16 45 7 30 36 37 36 10 1 -17 2 -17 15 0 13
18 14 18 24 -2 7 -11 13 -50 15 -87 3 -62 5 -68 35 -86 35 -22 38 -16 15 30
-17 35 -6 72 21 72 18 0 19 5 3 30 -23 37 2 33 40 -7 21 -22 64 -50 95 -63 32
-13 57 -28 57 -32 0 -5 5 -6 11 -3 5 4 26 -10 45 -32 33 -37 34 -37 24 -9 -14
40 2 54 29 27 18 -18 24 -19 40 -9 16 10 23 9 39 -5 23 -21 32 -22 32 -2 0 23
22 18 47 -12 13 -14 23 -23 23 -19 0 4 12 -2 26 -13 34 -26 61 -27 69 -1 7 23
18 25 46 10 20 -11 28 3 9 15 -17 10 -11 25 10 25 12 0 20 -7 20 -16 0 -9 9
-29 21 -45 15 -22 17 -27 5 -23 -32 12 -14 -16 46 -75 60 -58 62 -61 43 -76
-64 -49 -133 -89 -183 -107 -111 -39 -137 -55 -175 -110 -33 -46 -44 -55 -104
-75 -44 -15 -71 -19 -77 -13 -6 6 -18 10 -28 10 -10 0 -24 11 -30 25 -6 14
-15 25 -19 25 -4 0 -12 14 -18 31 -8 23 -15 30 -27 25 -9 -3 -28 -9 -42 -12
-25 -5 -25 -4 -9 9 21 17 22 31 3 46 -17 14 -32 -3 -27 -32 3 -24 -42 -90 -73
-107 -13 -7 -46 -11 -75 -9 -53 4 -61 0 -37 -20 21 -18 73 -16 141 4 40 11 78
15 114 12 61 -7 71 -12 49 -30 -26 -21 -48 -60 -48 -87 0 -14 -9 -36 -20 -50
-15 -19 -20 -41 -20 -92 0 -56 -6 -78 -34 -135 -19 -37 -55 -117 -81 -178 -55
-130 -123 -266 -194 -388 -28 -49 -51 -94 -51 -101 0 -7 -4 -16 -9 -22 -5 -5
-16 -34 -25 -64 -10 -30 -23 -71 -31 -90 -7 -19 -25 -71 -38 -115 -14 -44 -41
-121 -60 -170 -65 -167 -77 -206 -77 -245 0 -37 -4 -53 -37 -129 -14 -30 -18
-33 -46 -26 -18 3 -47 9 -64 12 -18 3 -33 9 -33 13 0 5 -19 11 -42 15 -24 3
-76 13 -117 21 -40 8 -76 12 -79 10 -6 -7 0 -9 118 -42 52 -14 127 -31 165
-38 66 -11 70 -13 73 -39 5 -42 29 -45 63 -8 16 18 34 29 41 26 7 -4 4 1 -7
10 -28 22 -4 35 44 24 20 -5 117 -18 216 -29 310 -34 279 -26 309 -80 23 -42
26 -59 27 -151 0 -110 4 -137 38 -288 12 -51 20 -95 19 -97 -2 -1 -37 3 -78
11 -41 7 -122 21 -180 30 -118 20 -200 48 -378 130 -90 42 -129 55 -150 51
-15 -3 -34 -2 -41 3 -20 13 -51 -5 -51 -29 0 -22 -42 -142 -76 -218 -28 -62
-29 -66 -8 -97 10 -16 17 -52 19 -97 3 -70 19 -128 37 -128 4 0 8 5 8 10 0 26
19 6 25 -27 21 -111 1 -218 -95 -512 -36 -111 -36 -121 -9 -121 21 0 22 -2 14
-87 -19 -205 -8 -330 51 -550 2 -7 8 -13 13 -13 10 0 3 79 -9 95 -15 19 -31
131 -37 255 -7 160 10 248 62 327 54 82 145 241 145 255 0 6 7 19 16 29 15 17
15 20 -3 46 -23 32 -25 80 -4 92 11 7 12 17 2 56 -9 36 -9 51 -1 59 11 11 29
-5 55 -49 10 -16 14 -15 55 13 101 67 357 159 470 169 44 3 97 16 129 29 65
29 91 31 91 6 0 -10 5 -23 11 -29 16 -16 4 -30 -34 -38 -17 -4 -45 -13 -62
-21 -16 -7 -58 -24 -91 -36 -34 -13 -62 -27 -63 -33 -4 -20 39 -15 76 9 25 17
51 25 78 24 94 -1 310 25 327 39 22 19 65 12 163 -27 93 -37 260 -61 400 -58
98 3 111 5 115 22 3 11 21 24 45 31 43 12 107 43 115 55 12 17 118 47 155 43
79 -7 169 74 163 147 -3 31 0 35 22 38 46 7 48 15 45 155 -3 91 -13 187 -35
307 -52 295 -53 308 -54 408 -1 75 4 115 23 177 39 130 35 362 -11 634 -6 37
-7 66 -2 70 38 26 44 142 13 228 -70 189 -231 499 -278 534 -16 11 -46 44 -67
72 -21 29 -56 71 -78 94 -22 24 -47 60 -56 80 -9 21 -25 45 -35 53 -33 27 -75
92 -75 116 0 28 -27 44 -73 44 -26 0 -36 5 -40 20 -4 15 -14 20 -42 20 -33 0
-45 8 -106 73 -38 39 -69 77 -69 84 0 6 -4 15 -10 18 -5 3 -10 13 -10 21 0 10
7 13 24 8 22 -5 25 -2 32 31 5 26 10 33 17 26 6 -6 21 -11 33 -11 22 0 34 17
34 50 0 10 11 32 25 48 28 33 32 57 11 65 -20 8 -28 -4 -15 -20 9 -9 8 -13 0
-13 -19 0 -54 37 -46 49 3 6 -1 11 -9 11 -9 0 -16 6 -16 14 0 17 45 35 83 34
39 -1 60 20 29 29 -29 7 -21 35 20 78 l29 30 -34 5 c-31 5 -83 39 -100 67 -9
14 29 5 61 -15 20 -13 22 -13 22 8 0 24 -81 147 -111 168 -43 30 -109 96 -109
109 0 8 -11 29 -24 46 -13 18 -33 50 -45 72 -37 68 -80 122 -132 167 -28 24
-82 71 -121 106 -78 69 -152 112 -195 112 -16 0 -66 14 -113 31 -118 44 -153
46 -216 11z m96 -7 c0 -7 -124 -65 -164 -76 -26 -8 -28 -7 -16 5 42 40 180 94
180 71z m75 -25 c3 -5 -1 -10 -9 -10 -9 0 -16 5 -16 10 0 6 4 10 9 10 6 0 13
-4 16 -10z m-85 -75 c-7 -8 -22 -15 -34 -15 -21 1 -21 1 -2 15 27 21 53 20 36
0z m-330 -125 c0 -5 -5 -10 -11 -10 -5 0 -7 5 -4 10 3 6 8 10 11 10 2 0 4 -4
4 -10z m-349 -373 c-10 -9 -11 -8 -5 6 3 10 9 15 12 12 3 -3 0 -11 -7 -18z
m-79 -92 c-5 -18 -11 -25 -16 -17 -4 6 -2 21 4 33 15 28 21 20 12 -16z m1603
-395 c3 -5 -1 -10 -9 -10 -8 0 -18 5 -21 10 -3 6 1 10 9 10 8 0 18 -4 21 -10z
m39 -36 c20 -8 21 -34 2 -34 -25 0 -46 12 -46 26 0 15 18 18 44 8z m-1444
-169 c0 -8 -4 -15 -10 -15 -5 0 -10 7 -10 15 0 8 5 15 10 15 6 0 10 -7 10 -15z
m44 -3505 c31 -11 33 -26 6 -33 -13 -3 -20 0 -20 8 0 8 -8 19 -17 24 -23 13
-2 14 31 1z m-44 -240 c0 -5 -5 -10 -11 -10 -5 0 -7 5 -4 10 3 6 8 10 11 10 2
0 4 -4 4 -10z m41 -47 c6 -15 8 -36 5 -45 -7 -28 -147 -278 -155 -278 -10 0 6
146 21 190 15 47 90 160 106 160 7 0 17 -12 23 -27z"/>
<path d="M4556 7887 c-6 -32 -4 -41 16 -57 13 -11 34 -20 48 -21 14 -1 37 -2
52 -3 14 -1 34 -8 44 -16 16 -14 17 -12 10 25 -4 22 -15 48 -23 58 -15 16 -17
16 -30 -3 -8 -11 -20 -20 -26 -19 -7 1 -20 -1 -30 -6 -23 -10 -37 4 -46 47
l-7 33 -8 -38z"/>
<path d="M4782 7743 c-10 -4 -9 -8 5 -18 20 -15 33 -11 33 11 0 14 -14 17 -38
7z"/>
<path d="M4850 7653 c0 -10 52 -34 59 -28 6 7 -31 34 -46 35 -7 0 -13 -3 -13
-7z"/>
<path d="M3477 6033 c-11 -10 -8 -25 3 -18 6 4 26 -3 46 -15 48 -30 55 -18 7
14 -40 28 -46 30 -56 19z"/>
<path d="M3460 5988 c0 -25 12 -58 19 -53 10 6 1 65 -10 65 -5 0 -9 -6 -9 -12z"/>
<path d="M3626 5970 c5 -5 32 -11 59 -14 50 -5 42 -1 -29 14 -21 5 -34 5 -30
0z"/>
<path d="M3094 5923 c-17 -16 -47 -40 -65 -55 -29 -24 -30 -26 -7 -14 15 7 44
27 64 45 23 19 44 29 53 26 9 -4 52 -15 96 -26 88 -21 145 -24 145 -9 0 6 -12
10 -27 10 -16 1 -64 10 -108 21 -44 11 -89 22 -100 25 -12 3 -32 -6 -51 -23z"/>
<path d="M3921 5874 c13 -14 36 -33 52 -42 15 -9 27 -21 27 -27 0 -6 20 -21
45 -33 51 -25 55 -26 55 -13 0 5 -17 16 -37 24 -21 8 -63 38 -95 66 -59 54
-88 69 -47 25z"/>
<path d="M3150 5845 c0 -7 72 -41 103 -49 15 -4 27 -13 27 -22 0 -12 7 -15 30
-12 40 6 47 -7 15 -28 -14 -9 -24 -19 -22 -21 7 -6 77 38 77 48 0 5 12 9 28 9
15 1 54 7 87 15 33 8 74 15 91 15 17 0 48 9 70 20 35 19 36 20 9 14 -16 -3
-48 -7 -70 -8 -22 -1 -50 -8 -63 -15 -27 -14 -133 -5 -174 15 -35 18 -38 18
-38 -6 0 -27 -27 -26 -100 5 -61 26 -70 28 -70 20z"/>
<path d="M3518 5833 c7 -3 16 -2 19 1 4 3 -2 6 -13 5 -11 0 -14 -3 -6 -6z"/>
<path d="M2916 5758 l-18 -33 21 25 c18 22 26 40 18 40 -1 0 -11 -15 -21 -32z"/>
<path d="M3026 5752 l-19 -27 24 22 c12 12 21 24 18 27 -2 2 -13 -8 -23 -22z"/>
<path d="M3052 5630 c0 -19 2 -27 5 -17 2 9 2 25 0 35 -3 9 -5 1 -5 -18z"/>
<path d="M2840 5608 c0 -36 4 -35 14 5 4 16 2 27 -4 27 -5 0 -10 -14 -10 -32z"/>
<path d="M2833 5510 c0 -25 2 -35 4 -22 2 12 2 32 0 45 -2 12 -4 2 -4 -23z"/>
<path d="M3050 5536 c0 -9 5 -16 10 -16 6 0 10 4 10 9 0 6 -4 13 -10 16 -5 3
-10 -1 -10 -9z"/>
<path d="M3190 5523 c0 -7 10 -13 23 -13 12 0 32 -3 43 -6 14 -4 23 0 27 9 4
12 -5 16 -44 19 -34 2 -49 -1 -49 -9z"/>
<path d="M3000 5518 c0 -9 12 -36 26 -62 26 -47 54 -61 54 -27 0 11 -6 18 -16
17 -10 0 -26 16 -40 43 -13 24 -24 37 -24 29z"/>
<path d="M3380 5440 c0 -5 16 -10 35 -10 19 0 35 5 35 10 0 6 -16 10 -35 10
-19 0 -35 -4 -35 -10z"/>
<path d="M2961 5404 c0 -11 3 -14 6 -6 3 7 2 16 -1 19 -3 4 -6 -2 -5 -13z"/>
<path d="M2802 5315 c0 -16 2 -22 5 -12 2 9 2 23 0 30 -3 6 -5 -1 -5 -18z"/>
<path d="M3960 5314 c-52 -13 -125 -30 -162 -38 -37 -8 -79 -22 -95 -31 -15
-9 -19 -13 -8 -10 11 4 92 22 180 41 88 19 172 37 188 41 15 3 30 10 33 14 8
14 -33 9 -136 -17z"/>
<path d="M4187 5319 c7 -7 15 -10 18 -7 3 3 -2 9 -12 12 -14 6 -15 5 -6 -5z"/>
<path d="M3196 5313 c-3 -4 5 -16 20 -28 l27 -21 -26 -26 c-14 -14 -42 -31
-62 -38 -19 -6 -35 -15 -35 -20 0 -13 81 25 106 49 12 12 27 21 33 21 6 0 52
-20 101 -45 49 -25 102 -45 117 -45 21 0 -8 19 -106 70 -74 38 -139 74 -145
80 -12 12 -20 13 -30 3z"/>
<path d="M3520 5301 c0 -10 19 -25 25 -20 1 2 -3 10 -11 17 -8 7 -14 8 -14 3z"/>
<path d="M4240 5302 c0 -9 59 -36 65 -30 3 2 -11 12 -30 21 -19 9 -35 13 -35
9z"/>
<path d="M2792 5255 c0 -16 2 -22 5 -12 2 9 2 23 0 30 -3 6 -5 -1 -5 -18z"/>
<path d="M4150 5163 c-93 -75 -113 -94 -105 -101 6 -6 31 11 113 78 76 62 112
100 94 100 -4 0 -50 -34 -102 -77z"/>
<path d="M3045 5160 c-14 -7 -8 -8 20 -3 22 3 42 7 44 9 9 8 -45 2 -64 -6z"/>
<path d="M2930 5130 l-35 -7 32 -2 c17 0 35 4 38 9 3 6 5 9 3 9 -2 -1 -19 -5
-38 -9z"/>
<path d="M3658 5022 c12 -10 64 -31 114 -47 155 -49 253 -38 342 40 37 32 23
33 -18 1 -57 -43 -93 -56 -154 -56 -65 0 -195 31 -253 60 -47 25 -61 25 -31 2z"/>
<path d="M5025 4613 c-55 -11 -72 -24 -67 -51 3 -15 9 -30 15 -33 12 -8 -50
-42 -62 -35 -5 3 -14 19 -21 36 -7 16 -16 30 -20 30 -37 0 -96 -134 -107 -244
-10 -101 -43 -143 -76 -96 -12 18 -15 18 -20 5 -9 -22 -37 -19 -37 5 0 13 5
17 14 14 11 -4 13 0 9 15 -11 43 -18 38 -63 -59 -4 -8 -20 -14 -36 -15 -23 0
-32 -7 -46 -35 -18 -37 -24 -120 -9 -120 5 0 12 17 16 38 14 74 45 79 45 7 0
-51 16 -67 30 -30 13 35 29 23 25 -20 -3 -33 9 -54 23 -40 4 4 9 50 12 103 6
111 19 126 70 75 26 -25 29 -33 24 -78 -2 -27 -1 -72 5 -100 8 -48 9 -49 10
-12 0 21 7 39 14 41 6 2 21 7 32 12 11 4 26 6 33 5 8 -1 20 3 28 10 11 9 18 9
26 1 9 -9 7 -12 -10 -12 -19 0 -20 -2 -10 -25 14 -30 28 -33 28 -5 0 35 27 21
63 -32 102 -156 117 -189 117 -266 0 -23 7 -88 15 -145 9 -56 14 -111 11 -122
-3 -11 -1 -45 3 -75 8 -54 9 -54 10 -12 1 30 5 42 16 42 8 0 15 -4 15 -9 0 -5
-7 -25 -15 -44 -9 -23 -15 -69 -15 -125 0 -48 -7 -115 -16 -147 -8 -33 -18
-89 -21 -125 -6 -58 -7 -62 -15 -35 -5 17 -6 46 -3 65 10 64 28 254 28 300 0
25 -5 65 -11 90 -11 42 -11 39 -7 -40 5 -100 -19 -326 -38 -357 -4 -6 2 -51
12 -100 21 -93 95 -340 105 -350 19 -19 15 17 -8 93 -26 83 -27 93 -21 223 5
91 12 141 21 152 7 8 16 49 19 90 4 40 9 85 11 99 5 22 6 23 16 7 5 -10 7 -34
4 -53 -4 -21 -3 -34 4 -34 5 0 10 21 10 46 0 55 16 55 36 -1 15 -43 18 -73 7
-62 -3 4 -12 2 -20 -4 -15 -13 -18 -65 -3 -74 13 -8 13 -65 -1 -65 -7 0 -9
-21 -5 -62 3 -35 8 -88 11 -119 3 -31 1 -79 -5 -107 -9 -47 -7 -56 21 -112 16
-33 34 -60 39 -60 5 0 14 -19 20 -42 20 -76 88 -172 218 -312 121 -129 168
-173 177 -164 3 2 -28 38 -68 80 -40 41 -81 85 -92 98 l-20 23 20 -11 c11 -6
48 -38 82 -71 34 -33 71 -65 83 -71 11 -6 36 -43 56 -82 l35 -70 -19 -45 c-10
-24 -22 -45 -25 -46 -11 -4 -84 60 -213 186 -171 167 -189 180 -182 135 2 -12
26 -40 55 -62 69 -54 238 -193 255 -209 7 -6 29 -25 48 -41 24 -20 37 -40 41
-65 l5 -36 14 30 13 30 7 -30 c7 -32 10 -28 27 35 l10 35 12 -57 c7 -32 10
-62 7 -67 -3 -4 -7 -57 -10 -116 -2 -59 -9 -112 -15 -118 -6 -6 -11 -19 -11
-29 0 -10 -7 -18 -15 -18 -8 0 -23 -17 -34 -38 -11 -20 -29 -43 -40 -50 -12
-7 -21 -20 -21 -30 0 -10 -7 -27 -15 -38 -14 -18 -14 -18 -15 7 0 31 -26 47
-33 21 -3 -9 -5 -2 -6 16 -1 19 -7 35 -16 38 -8 3 -17 15 -21 26 -4 12 -11 17
-21 13 -9 -3 -24 2 -34 11 -11 10 -19 13 -19 7 0 -13 51 -83 79 -107 11 -11
21 -25 21 -33 0 -7 3 -13 8 -13 4 0 6 -46 5 -101 -1 -56 3 -113 10 -128 11
-26 11 -26 17 14 5 36 6 37 11 13 3 -14 2 -32 -2 -40 -4 -8 -3 -33 3 -56 9
-36 13 -41 32 -36 20 5 24 -2 43 -78 12 -46 40 -140 62 -210 48 -152 58 -251
26 -256 -23 -3 -81 -110 -73 -133 3 -8 -15 -36 -39 -63 -33 -37 -42 -54 -37
-70 10 -34 14 -33 54 13 24 28 40 39 45 32 4 -7 2 -17 -3 -24 -5 -7 -12 -24
-16 -39 l-6 -28 59 0 c49 0 61 3 66 19 3 10 15 27 27 37 21 19 21 19 16 -18
-6 -58 31 -47 45 13 6 21 3 25 -15 25 -23 -1 -25 4 -34 114 -5 53 -3 63 7 53
7 -7 22 -13 32 -13 18 0 18 -1 3 -25 -21 -31 -20 -43 1 -41 11 0 19 -7 21 -21
2 -15 8 -20 18 -16 11 4 14 -2 13 -28 -1 -19 3 -46 9 -60 6 -15 8 -30 5 -33
-4 -3 35 -6 85 -6 89 0 103 5 82 26 -12 12 -1 84 14 84 13 -1 76 -82 76 -98 0
-7 14 -12 30 -12 38 0 39 18 3 62 -16 18 -31 38 -35 43 -4 6 -19 24 -33 41
-28 35 -33 64 -11 64 22 0 46 29 46 55 0 14 -16 41 -40 66 -46 48 -47 58 -21
131 34 96 22 291 -29 473 -65 232 -62 213 -50 310 25 197 23 190 48 193 12 2
22 9 22 16 0 8 -13 78 -29 157 -37 178 -63 407 -51 446 4 15 15 45 24 65 21
48 20 49 -8 42 -13 -3 -27 -1 -31 5 -3 7 19 65 49 130 56 120 76 181 59 181
-5 0 -19 -20 -31 -45 -12 -25 -27 -45 -34 -45 -9 0 -9 3 0 12 7 7 12 19 12 27
0 9 12 39 25 66 14 28 25 59 25 70 0 11 6 29 13 40 27 40 38 107 27 160 -5 28
-13 66 -16 85 -3 19 -10 51 -16 71 -8 28 -5 65 17 185 14 82 33 181 42 221 14
62 14 74 2 89 -13 16 -15 15 -21 -12 -5 -18 -5 -13 -2 16 5 45 12 61 54 135
30 54 31 157 1 285 -12 52 -24 106 -27 119 -3 13 -7 21 -9 19 -3 -3 8 -70 25
-150 31 -152 30 -189 -6 -227 -10 -11 -14 -5 -19 35 -4 27 -13 85 -21 129 -39
222 -54 308 -60 331 -6 23 -4 25 17 22 20 -3 26 -12 37 -66 8 -35 16 -61 19
-58 13 13 -40 186 -57 186 -4 0 -58 -34 -121 -77 -63 -42 -146 -93 -185 -113
-38 -20 -81 -44 -94 -53 -14 -9 -28 -17 -33 -17 -20 0 19 31 141 111 70 46
129 87 130 92 2 4 8 7 13 7 6 0 28 14 50 30 21 17 57 44 78 60 22 17 47 30 55
30 24 0 86 41 86 56 0 8 -12 36 -27 64 -27 47 -30 50 -70 50 -23 0 -54 5 -68
12 -24 11 -29 9 -44 -10 -11 -16 -23 -21 -34 -16 -13 5 -21 -1 -29 -22 -8 -22
-24 -34 -68 -52 -87 -34 -121 -30 -201 23 -105 69 -104 54 1 -20 30 -21 58
-42 61 -48 4 -5 20 -6 37 -2 17 3 33 2 36 -4 6 -10 81 25 116 54 29 24 152 67
162 57 17 -17 1 -29 -80 -67 -42 -20 -104 -53 -137 -74 -140 -87 -152 -92
-169 -76 -12 12 -20 13 -35 5 -11 -5 -27 -10 -36 -10 -9 0 -29 -8 -43 -18 -15
-10 -46 -25 -69 -34 -41 -16 -42 -16 -80 12 l-39 29 9 -68 9 -68 -58 -57 c-33
-31 -69 -66 -80 -77 -31 -30 -49 -91 -35 -117 14 -27 15 -105 0 -100 -5 2 -45
43 -87 92 -66 76 -221 213 -244 215 -22 2 -118 74 -118 88 0 28 33 106 53 126
13 13 17 26 12 44 -9 37 3 66 26 60 12 -3 26 6 44 29 l26 34 -21 39 c-13 27
-16 42 -9 47 6 3 16 1 22 -5 6 -6 19 -11 28 -11 9 0 33 -18 53 -40 33 -36 56
-45 56 -20 0 5 -25 37 -55 73 -30 35 -55 69 -55 76 0 18 -23 13 -62 -14 -20
-14 -42 -25 -49 -25 -12 0 -59 -46 -59 -57 0 -7 -58 -63 -65 -63 -9 0 50 80
93 127 21 24 53 48 70 54 18 6 32 16 32 22 -1 23 -35 54 -55 50z m-68 -248 c9
-24 -1 -27 -15 -5 -8 13 -8 20 -2 20 6 0 13 -7 17 -15z m-77 -130 c7 -9 19
-14 27 -11 16 7 17 -19 2 -63 -16 -47 -35 -38 -57 27 -17 51 1 80 28 47z
m1284 -255 c0 -8 -4 -34 -8 -58 -5 -33 -3 -42 5 -36 9 5 10 2 6 -10 -4 -9 0
-42 9 -74 29 -106 33 -126 39 -212 7 -78 6 -86 -14 -104 -16 -15 -21 -31 -21
-73 0 -34 4 -52 10 -48 6 3 10 15 10 26 0 12 5 19 13 17 8 -3 15 -43 21 -119
8 -94 6 -132 -9 -224 -22 -126 -23 -172 -12 -344 7 -111 6 -123 -8 -111 -18
15 -20 2 -4 -33 16 -35 -9 -113 -80 -251 -102 -198 -173 -287 -212 -265 -10 5
-19 19 -19 29 0 14 -7 20 -22 20 -13 0 -38 16 -57 35 -19 19 -41 35 -50 35
-35 0 -99 137 -105 223 -4 46 -3 47 25 49 16 0 34 1 40 2 6 1 28 -33 48 -74
33 -68 39 -75 65 -75 21 0 34 8 45 26 37 61 77 109 93 109 66 1 136 198 136
379 0 70 -5 98 -29 158 -16 41 -29 79 -29 87 0 7 -12 29 -27 49 -22 29 -35 36
-61 37 -19 0 -42 9 -54 20 -12 11 -27 20 -32 20 -6 0 -3 -5 7 -11 9 -5 17 -14
17 -19 0 -15 -92 -70 -117 -70 -12 0 -23 -5 -25 -12 -8 -23 -28 4 -28 38 0 19
-4 34 -10 34 -5 0 -10 -12 -10 -26 0 -21 -4 -24 -19 -19 -14 4 -23 0 -30 -14
-6 -11 -24 -22 -41 -26 -35 -8 -37 -18 -10 -52 26 -33 25 -49 -1 -64 -21 -11
-21 -15 -15 -153 3 -77 11 -165 18 -194 9 -42 9 -58 0 -73 -7 -10 -12 -44 -12
-74 0 -55 -12 -69 -36 -45 -11 11 -42 17 -101 19 -25 1 -36 8 -47 30 -12 22
-20 27 -40 24 -54 -11 -70 82 -67 383 2 155 0 186 -15 220 -25 54 -28 372 -4
391 16 13 14 16 -29 42 -19 12 -6 28 29 36 28 6 29 7 23 57 -7 61 4 59 43 -8
14 -24 30 -44 36 -44 5 0 8 -10 6 -22 -3 -20 -8 -23 -45 -20 -52 4 -56 -9 -8
-27 28 -10 39 -10 50 -1 23 19 41 6 61 -44 12 -30 25 -46 37 -46 21 0 23 44 2
80 -22 38 -19 60 8 60 35 0 61 24 113 103 26 39 49 74 51 77 3 3 13 -6 23 -20
22 -29 37 -22 20 9 -10 20 -8 21 29 21 31 0 44 5 55 23 19 29 100 90 162 123
27 14 60 34 74 44 14 9 35 21 48 25 13 3 27 18 33 32 6 18 15 24 32 21 12 -2
22 -10 21 -18z m-1124 -20 c21 -21 26 -55 10 -65 -5 -3 -10 -1 -10 5 0 7 -9
23 -20 37 -34 43 -18 61 20 23z m687 -142 c-3 -8 -6 -5 -6 6 -1 11 2 17 5 13
3 -3 4 -12 1 -19z m543 -65 c0 -5 5 -35 10 -68 18 -107 20 -134 11 -139 -10
-7 -16 16 -31 119 -12 88 -12 95 0 95 6 0 10 -3 10 -7z m-770 -30 c0 -5 -7
-26 -15 -48 -9 -26 -15 -33 -16 -20 -3 43 6 75 21 75 5 0 10 -3 10 -7z m440
-663 c0 -5 -4 -10 -10 -10 -5 0 -10 5 -10 10 0 6 5 10 10 10 6 0 10 -4 10 -10z
m-20 -96 c0 -8 -4 -12 -10 -9 -5 3 -10 10 -10 16 0 5 5 9 10 9 6 0 10 -7 10
-16z m-170 -37 c0 -8 -9 -22 -19 -31 -26 -23 -39 -2 -15 25 20 22 34 25 34 6z
m-503 -69 c-2 -13 -4 -3 -4 22 0 25 2 35 4 23 2 -13 2 -33 0 -45z m664 49 c-1
-12 -15 -9 -19 4 -3 6 1 10 8 8 6 -3 11 -8 11 -12z m109 -173 c0 -8 -4 -12
-10 -9 -5 3 -10 10 -10 16 0 5 5 9 10 9 6 0 10 -7 10 -16z m-743 -66 c-2 -13
-4 -5 -4 17 -1 22 1 32 4 23 2 -10 2 -28 0 -40z m161 -338 c63 -73 51 -93 -17
-31 -37 34 -52 54 -48 65 10 25 19 20 65 -34z m280 -192 c19 -19 14 -30 -8
-18 -11 6 -20 15 -20 20 0 14 14 12 28 -2z m315 -73 c-3 -9 -8 -14 -10 -11 -3
3 -2 9 2 15 9 16 15 13 8 -4z m-221 -67 c-9 -9 -12 -7 -12 12 0 19 3 21 12 12
9 -9 9 -15 0 -24z m232 -3 c-4 -8 -8 -15 -10 -15 -2 0 -4 7 -4 15 0 8 4 15 10
15 5 0 7 -7 4 -15z m-171 -15 c3 -11 2 -20 -3 -20 -4 0 -10 9 -13 20 -3 11 -2
20 3 20 4 0 10 -9 13 -20z m3 -57 c-10 -10 -19 5 -10 18 6 11 8 11 12 0 2 -7
1 -15 -2 -18z m200 -47 c3 -8 4 -27 2 -42 l-3 -28 -18 28 c-19 28 -17 56 3 56
6 0 13 -6 16 -14z m21 -68 c-3 -8 -6 -5 -6 6 -1 11 2 17 5 13 3 -3 4 -12 1
-19z m-43 -84 c10 -27 7 -56 -6 -52 -15 5 -24 68 -10 68 6 0 13 -7 16 -16z
m56 -127 c0 -46 -5 -80 -14 -92 -13 -18 -14 -17 -20 12 -8 35 12 153 25 153 5
0 9 -33 9 -73z m-80 -23 c0 -8 -4 -12 -10 -9 -5 3 -10 10 -10 16 0 5 5 9 10 9
6 0 10 -7 10 -16z m-76 -119 c21 -118 20 -128 -8 -79 -24 43 -40 133 -29 173
9 34 18 11 37 -94z m84 20 c0 -34 -1 -36 -8 -15 -4 14 -8 41 -8 60 -1 28 1 31
8 15 5 -11 8 -38 8 -60z m112 -72 c-1 -21 -7 -51 -15 -68 l-13 -30 -1 45 c-1
52 8 90 20 90 5 0 9 -17 9 -37z m35 -488 c10 -44 21 -91 26 -105 16 -47 26
-170 14 -170 -18 0 -32 40 -54 153 -11 57 -25 116 -31 131 -11 31 -13 86 -3
112 5 15 9 13 19 -12 7 -16 20 -65 29 -109z m-57 -444 c14 -39 -3 -66 -17 -28
-6 16 -11 35 -11 43 0 24 18 15 28 -15z m-228 -221 c0 -27 -4 -50 -10 -50 -11
0 -14 83 -3 93 12 12 13 8 13 -43z m-31 -37 c1 -18 -3 -33 -8 -33 -13 0 -21
39 -14 74 5 26 7 27 14 11 4 -11 8 -35 8 -52z m53 -88 c-5 -30 -55 -105 -69
-105 -19 0 -16 34 6 61 10 13 22 34 25 47 9 29 43 26 38 -3z m268 -85 c0 -5
-4 -10 -10 -10 -5 0 -10 5 -10 10 0 6 5 10 10 10 6 0 10 -4 10 -10z"/>
<path d="M6054 3740 c4 -14 11 -56 17 -95 7 -38 18 -85 26 -103 8 -19 12 -36
10 -39 -8 -8 -77 17 -77 28 0 5 -13 9 -29 9 -17 0 -33 5 -37 11 -3 6 -25 19
-48 29 -45 20 -31 24 47 11 26 -4 47 -4 47 0 0 9 -105 23 -170 22 -53 -1 -62
-22 -15 -37 17 -5 97 -36 179 -67 166 -65 176 -65 176 5 0 48 -15 81 -25 55
-3 -9 -5 -20 -3 -25 2 -5 -1 -11 -7 -14 -5 -3 -11 6 -12 20 -3 58 -17 106 -35
118 -10 7 -18 21 -18 30 -1 9 -8 28 -16 42 l-15 25 5 -25z"/>
<path d="M5740 3641 c0 -6 5 -13 10 -16 6 -3 10 1 10 9 0 9 -4 16 -10 16 -5 0
-10 -4 -10 -9z"/>
<path d="M6025 3580 c3 -5 13 -10 21 -10 8 0 12 5 9 10 -3 6 -13 10 -21 10 -8
0 -12 -4 -9 -10z"/>
<path d="M5511 2784 c1 -32 5 -72 9 -89 5 -17 6 6 3 55 -7 99 -14 120 -12 34z"/>
<path d="M5165 4570 c-3 -5 -1 -10 4 -10 6 0 11 5 11 10 0 6 -2 10 -4 10 -3 0
-8 -4 -11 -10z"/>
<path d="M4286 4528 c-3 -13 -7 -36 -10 -53 -2 -16 -11 -50 -20 -74 -9 -24
-14 -46 -11 -49 10 -11 24 20 39 88 10 43 22 70 38 82 15 12 17 16 6 12 -10
-3 -18 -1 -18 5 0 20 -20 11 -24 -11z"/>
<path d="M6171 4531 c-35 -5 -41 -8 -30 -17 8 -7 33 -15 57 -19 40 -6 42 -6
42 19 0 15 -5 25 -12 24 -7 0 -33 -4 -57 -7z"/>
<path d="M4680 4510 c0 -5 5 -10 11 -10 5 0 7 5 4 10 -3 6 -8 10 -11 10 -2 0
-4 -4 -4 -10z"/>
<path d="M4625 4486 c-19 -14 -19 -16 -3 -32 16 -16 18 -16 23 -1 4 9 5 23 3
32 -3 14 -5 14 -23 1z"/>
<path d="M5880 4430 c19 -17 50 -32 70 -36 19 -3 48 -10 64 -15 52 -16 62 -12
36 16 -21 22 -29 24 -69 19 -39 -5 -51 -2 -80 20 -48 36 -64 32 -21 -4z"/>
<path d="M4217 4310 c-13 -31 -40 -141 -38 -155 3 -17 17 -1 27 32 7 21 19 59
27 84 19 58 5 91 -16 39z"/>
<path d="M5590 4305 c1 -19 117 -128 129 -121 8 5 -4 19 -31 38 -62 45 -79 76
-33 58 16 -6 25 -6 25 0 0 13 -46 24 -61 15 -6 -4 -15 -1 -20 6 -5 8 -9 10 -9
4z"/>
<path d="M5362 4258 c3 -7 15 -15 27 -16 16 -3 22 1 19 10 -3 7 -15 15 -27 16
-16 3 -22 -1 -19 -10z"/>
<path d="M5460 4244 c0 -6 15 -23 32 -40 l33 -29 -25 30 c-14 17 -28 34 -32
40 -5 5 -8 5 -8 -1z"/>
<path d="M4490 3880 c0 -58 -5 -134 -11 -170 -6 -36 -14 -110 -19 -165 -10
-119 -17 -154 -38 -178 -12 -13 -17 -15 -24 -5 -11 18 -10 30 2 23 6 -3 10 1
10 10 0 9 -4 13 -10 10 -5 -3 -10 0 -11 7 -1 27 -29 -79 -29 -112 0 -21 -3
-30 -8 -23 -10 16 -38 -64 -47 -133 -9 -71 9 -78 32 -12 27 79 77 174 88 168
24 -12 -19 -161 -79 -275 -17 -33 -22 -110 -7 -119 5 -4 12 13 16 35 9 50 51
173 71 209 14 23 15 11 10 -116 -3 -108 -10 -167 -31 -251 l-27 -110 30 -124
c43 -178 47 -209 28 -209 -21 0 -30 21 -51 120 -21 101 -29 132 -48 184 l-14
38 -16 -78 c-48 -240 -57 -290 -55 -318 0 -17 -3 -51 -7 -76 -8 -42 -7 -44 9
-31 19 16 26 12 31 -21 1 -12 8 -54 14 -92 7 -37 9 -77 5 -88 -4 -14 -2 -18 5
-14 6 4 11 6 11 4 0 -2 12 -48 26 -103 30 -115 41 -305 17 -305 -7 0 -14 7
-14 15 -1 8 -2 21 -3 28 -2 24 -56 6 -56 -20 0 -10 -70 -66 -76 -61 -5 6 41
265 64 356 10 39 15 72 10 72 -4 0 -8 -8 -9 -17 0 -10 -3 -13 -5 -6 -3 6 -1
28 5 47 13 48 -2 46 -21 -1 l-15 -38 -17 40 c-10 22 -22 54 -26 70 -4 17 -20
71 -35 120 -15 50 -31 126 -36 170 -8 75 -6 87 32 225 22 80 49 181 61 225 11
44 29 105 39 136 11 30 19 69 19 85 -1 69 -41 -33 -100 -256 -12 -47 -44 -156
-71 -243 l-48 -159 15 -61 c17 -69 84 -272 108 -329 19 -43 22 -203 6 -258
-21 -73 -50 -230 -50 -274 0 -32 4 -46 13 -46 16 0 41 27 50 52 7 21 84 61
103 54 8 -3 14 -12 14 -20 0 -9 7 -12 18 -9 17 4 20 -4 25 -84 4 -49 14 -138
23 -199 12 -84 14 -116 5 -140 -13 -36 5 -84 28 -76 12 4 13 -11 8 -88 -3 -51
-10 -96 -14 -99 -5 -3 -9 -67 -9 -141 -1 -138 -21 -300 -54 -425 -26 -98 -34
-205 -15 -205 10 0 15 21 19 78 3 42 13 97 20 122 32 99 47 204 57 395 5 110
14 272 20 360 12 178 12 257 0 265 -10 7 -25 49 -50 136 -23 79 -27 128 -10
122 14 -5 68 -153 69 -185 0 -13 4 -23 10 -23 5 0 18 -17 29 -39 19 -36 20
-55 16 -297 -2 -143 -11 -338 -19 -434 -8 -96 -20 -233 -26 -305 -6 -72 -13
-145 -16 -162 -5 -26 -3 -33 10 -33 11 0 16 9 16 30 0 17 5 30 10 30 6 0 10
-13 10 -30 0 -29 1 -30 51 -30 l52 0 -6 88 c-4 48 -3 103 2 122 l8 35 13 -45
c8 -25 14 -80 14 -122 l0 -78 53 0 c64 0 67 6 72 133 1 16 4 26 9 23 4 -2 7
-38 6 -80 -1 -60 2 -76 13 -76 8 0 17 9 20 20 3 11 10 20 15 20 5 0 12 -9 15
-20 4 -16 14 -20 45 -20 l39 0 -5 143 c-14 341 -17 371 -33 390 -9 9 -33 61
-53 115 -21 53 -60 149 -88 212 -54 120 -88 233 -103 335 -5 33 -8 186 -8 340
0 262 -1 288 -25 406 -18 89 -26 158 -26 232 0 92 -29 291 -46 319 -6 10 -20
128 -34 278 -5 58 -12 133 -16 167 -5 45 -3 67 6 78 9 11 14 81 17 258 7 365
4 664 -7 689 -6 16 -9 -8 -10 -82z m-163 -1302 c-3 -7 -5 -2 -5 12 0 14 2 19
5 13 2 -7 2 -19 0 -25z m11 -131 c28 -42 28 -49 -3 -41 -40 10 -40 -17 0 -101
20 -43 34 -80 31 -83 -3 -3 -6 -1 -6 5 0 6 -11 14 -25 17 -15 4 -25 14 -25 24
0 9 -7 30 -15 46 -11 20 -14 44 -10 75 14 104 18 109 53 58z m16 -320 c3 -17
2 -35 -4 -41 -14 -14 -18 -6 -26 42 -6 35 -4 41 9 37 8 -4 18 -20 21 -38z m36
-62 c5 -13 21 -42 36 -64 25 -39 26 -43 19 -136 -6 -82 -16 -117 -30 -104 -2
2 -17 58 -35 124 -23 88 -30 131 -25 163 7 47 21 54 35 17z m133 -408 c9 -23
-8 -40 -22 -23 -13 15 -7 36 9 36 4 0 10 -6 13 -13z m-193 -96 c0 -18 -57 -57
-67 -47 -6 5 47 66 58 66 5 0 9 -9 9 -19z m196 -28 c2 -15 1 -44 -2 -63 -5
-30 -8 -32 -14 -15 -10 25 -12 99 -3 108 9 10 15 1 19 -30z m-86 -435 c0 -72
-4 -119 -11 -123 -6 -4 -12 -5 -14 -4 -1 2 -6 69 -9 149 l-7 145 20 -25 c18
-22 21 -39 21 -142z m117 -521 c3 -20 3 -44 -1 -53 -10 -27 -36 3 -36 41 0 73
25 81 37 12z m163 -199 c0 -16 -3 -19 -11 -11 -6 6 -8 16 -5 22 11 17 16 13
16 -11z m66 -143 c7 -18 -3 -65 -14 -65 -14 0 -36 44 -23 48 6 2 11 10 11 18
0 19 19 18 26 -1z"/>
<path d="M4206 3921 c-4 -7 -5 -15 -2 -18 9 -9 19 4 14 18 -4 11 -6 11 -12 0z"/>
<path d="M4194 3768 c4 -46 12 -112 18 -148 26 -152 27 -157 22 -75 -3 44 -9
105 -14 135 -5 30 -11 81 -12 112 -2 32 -7 58 -12 58 -5 0 -6 -37 -2 -82z"/>
<path d="M4392 3545 c0 -16 2 -22 5 -12 2 9 2 23 0 30 -3 6 -5 -1 -5 -18z"/>
<path d="M4242 3420 c0 -14 2 -19 5 -12 2 6 2 18 0 25 -3 6 -5 1 -5 -13z"/>
<path d="M5222 2965 c0 -16 2 -22 5 -12 2 9 2 23 0 30 -3 6 -5 -1 -5 -18z"/>
<path d="M4297 2783 c-4 -3 -7 -24 -7 -47 0 -42 13 -40 23 4 6 26 -4 55 -16
43z"/>
<path d="M5018 2705 c-16 -13 -28 -30 -28 -37 0 -7 14 -67 31 -133 33 -129 57
-177 45 -90 -16 115 -19 160 -8 150 5 -5 33 -70 62 -142 46 -115 92 -195 105
-181 2 2 -11 35 -30 73 -19 39 -58 135 -85 214 -64 183 -59 175 -92 146z"/>
<path d="M5190 2252 c0 -5 14 -21 30 -37 23 -22 30 -37 28 -60 -1 -19 9 -51
25 -80 18 -31 24 -51 17 -55 -7 -4 -2 -24 15 -58 30 -60 43 -70 19 -14 -24 54
-28 72 -16 72 6 0 13 -6 15 -12 3 -7 6 -1 6 15 1 15 -3 27 -9 27 -5 0 -10 18
-10 40 0 23 -9 58 -20 79 -26 53 -100 113 -100 83z"/>
<path d="M4714 2064 c3 -9 6 -26 6 -39 0 -20 36 -77 99 -155 l21 -25 0 23 c0
13 -8 35 -19 50 -10 15 -36 57 -57 94 -22 37 -43 68 -48 68 -4 0 -5 -7 -2 -16z"/>
<path d="M4760 1864 c0 -10 20 -40 45 -66 56 -60 58 -50 4 22 -52 69 -49 67
-49 44z"/>
<path d="M4920 1736 c6 -15 26 -49 45 -75 69 -91 145 -212 145 -231 0 -10 11
-31 24 -47 13 -15 31 -41 40 -58 9 -16 25 -41 36 -55 12 -15 26 -58 34 -105
13 -76 19 -94 52 -172 17 -39 17 -43 0 -43 -18 0 -76 117 -76 153 0 33 -58
161 -89 196 -11 13 -30 48 -41 78 -14 38 -41 75 -92 129 -40 42 -83 80 -95 85
-13 4 -23 17 -23 27 0 22 -89 123 -90 102 0 -8 12 -64 26 -125 14 -60 34 -150
45 -200 42 -192 65 -238 165 -341 50 -51 67 -84 44 -84 -5 0 -10 -4 -10 -10 0
-5 6 -10 14 -10 7 0 37 -7 65 -17 37 -12 51 -21 51 -35 0 -18 -1 -18 -38 1
-46 23 -70 15 -53 -18 7 -12 16 -19 22 -16 27 17 129 -81 107 -103 -6 -6 -8
-19 -4 -29 7 -17 8 -17 17 -1 8 15 12 15 37 2 15 -7 32 -14 37 -14 6 0 39 -23
74 -50 62 -48 91 -61 91 -41 0 6 -5 13 -10 16 -6 4 -8 10 -5 16 3 5 -4 23 -17
41 -17 24 -29 32 -45 30 -13 -2 -23 1 -23 6 0 6 -3 17 -6 26 -8 21 21 21 71 0
20 -8 40 -12 43 -9 3 3 -33 43 -81 88 -48 45 -87 86 -87 91 0 5 14 6 31 2 25
-5 30 -3 27 12 -2 9 -9 16 -16 15 -6 -2 -9 4 -6 12 5 11 2 13 -12 8 -16 -6
-17 -4 -6 9 10 12 9 18 -3 28 -8 7 -15 20 -15 29 0 9 -5 22 -11 28 -6 6 -9 19
-7 29 3 17 6 16 18 -6 8 -14 20 -25 26 -25 7 0 32 -25 55 -56 62 -78 154 -179
166 -179 5 0 20 -22 33 -50 13 -27 32 -52 43 -56 10 -3 24 -18 31 -32 30 -68
48 -94 58 -84 7 7 5 20 -6 43 -9 18 -16 39 -16 47 0 18 -51 112 -61 112 -4 0
-11 9 -14 20 -3 11 -12 26 -19 32 -7 7 -32 42 -56 78 -56 82 -61 87 -90 92
-16 2 -47 31 -90 84 -70 88 -221 291 -289 389 -114 166 -154 221 -167 235 -13
13 -14 12 -4 -14z m64 -291 c16 -12 43 -94 52 -155 4 -25 10 -52 14 -60 4 -8
10 -32 14 -52 6 -30 4 -38 -8 -38 -36 0 -60 76 -73 233 -3 37 -9 67 -14 67 -5
0 -8 12 -8 28 1 20 2 22 6 7 3 -11 10 -24 17 -30z m-44 -96 c0 -10 -4 -19 -9
-19 -10 0 -21 36 -14 44 10 10 23 -5 23 -25z m250 -257 c16 -40 8 -50 -24 -29
-22 15 -23 19 -13 47 12 33 18 30 37 -18z m-34 -112 c54 -38 56 -52 7 -38 -39
10 -63 31 -63 55 0 19 6 17 56 -17z m135 -117 c10 -10 21 -30 24 -45 6 -24 4
-28 -13 -28 -12 0 -33 15 -49 35 -15 19 -34 35 -40 35 -7 0 -13 7 -13 16 0 14
7 15 37 11 20 -4 45 -14 54 -24z m69 -103 c0 -11 -4 -20 -10 -20 -5 0 -10 9
-10 20 0 11 5 20 10 20 6 0 10 -9 10 -20z m80 -61 c0 -5 -4 -9 -10 -9 -5 0
-10 7 -10 16 0 8 5 12 10 9 6 -3 10 -10 10 -16z"/>
<path d="M5390 1726 c0 -8 5 -18 10 -21 6 -3 10 1 10 9 0 8 -4 18 -10 21 -5 3
-10 -1 -10 -9z"/>
<path d="M5736 1513 c-3 -21 -6 -53 -6 -72 0 -29 2 -32 15 -21 10 8 15 31 15
71 0 66 -14 79 -24 22z"/>
<path d="M4740 1509 c0 -17 26 -57 33 -49 2 3 -4 19 -14 35 -11 17 -19 23 -19
14z"/>
<path d="M4990 982 c0 -5 7 -15 15 -22 12 -10 19 -10 27 -2 14 14 11 17 -19
26 -13 4 -23 3 -23 -2z"/>
<path d="M4391 874 c0 -11 3 -14 6 -6 3 7 2 16 -1 19 -3 4 -6 -2 -5 -13z"/>
<path d="M5495 696 c-19 -14 -19 -15 -2 -22 22 -8 30 -1 25 21 -3 14 -5 14
-23 1z"/>
<path d="M5565 430 c3 -5 8 -10 11 -10 2 0 4 5 4 10 0 6 -5 10 -11 10 -5 0 -7
-4 -4 -10z"/>
<path d="M5156 382 c12 -9 27 -27 33 -39 7 -13 18 -23 26 -23 8 0 15 -7 15
-15 0 -20 19 -19 26 0 8 20 -9 39 -63 70 -53 29 -67 32 -37 7z"/>
<path d="M5164 278 c3 -13 6 -26 6 -30 0 -11 99 -60 109 -54 5 3 11 17 13 31
4 20 1 25 -16 27 -32 2 -39 1 -66 -5 -14 -4 -20 -4 -14 -1 9 4 9 11 0 29 -14
32 -41 34 -32 3z"/>
<path d="M5485 260 c3 -5 10 -10 16 -10 5 0 9 5 9 10 0 6 -7 10 -16 10 -8 0
-12 -4 -9 -10z"/>
<path d="M5430 141 c-185 -71 -167 -69 -189 -19 -11 24 -20 35 -20 25 -1 -20
27 -79 42 -88 5 -4 21 0 36 7 14 8 31 14 36 14 21 0 265 93 265 101 0 18 -48
6 -170 -40z"/>
<path d="M5575 110 c-47 -21 -154 -59 -207 -74 -32 -9 -58 -21 -58 -26 0 -13
43 -13 56 -1 5 5 54 24 109 41 149 47 165 53 165 62 0 10 -39 9 -65 -2z"/>
<path d="M6000 10 c0 -5 5 -10 10 -10 6 0 10 5 10 10 0 6 -4 10 -10 10 -5 0
-10 -4 -10 -10z"/>
</g>
</svg>
